# xmcd
#
# Track frame offsets:
# 150
# 18363
# 36235
# 57877
# 75920
# 92868
# 112386
# 132999
# 155949
# 176431
#
# Disc length: 2663 seconds
#
#
# Revision: 11
# Processed by: cddbd v1.5.2PL0 Copyright (c) Steve Scherf et al.
# Submitted via: FreeRIP 2.945 
#
DISCID=820a650a
DTITLE=Cher - Believe
DYEAR=1998
DGENRE=Pop
TTITLE0=Believe
TTITLE1=The Power
TTITLE2=Runaway
TTITLE3=All Or Nothing
TTITLE4=Strong Enough
TTITLE5=Dov'è l'amore
TTITLE6=Takin' Back My Heart
TTITLE7=Taxi Taxi
TTITLE8=Love Is the Groove
TTITLE9=We All Sleep Alone
EXTD=YEAR: 1998
EXTT0=
EXTT1=
EXTT2=
EXTT3=
EXTT4=
EXTT5=
EXTT6=
EXTT7=
EXTT8=
EXTT9=
PLAYORDER=
